<?xml version="1.0" encoding="UTF-8"?>
<svg width="18px" height="18px" viewBox="0 0 18 18" version="1.1" xmlns="http://www.w3.org/2000/svg" xmlns:xlink="http://www.w3.org/1999/xlink">
    <title>Shape</title>
    <g id="Page-1" stroke="none" stroke-width="1" fill="none" fill-rule="evenodd">
        <g id="icon-select-left-active" fill="#FFFFFF" fill-rule="nonzero">
            <path d="M18,9 C18,13.9705627 13.9705627,18 9,18 C4.02943725,18 0,13.9705627 0,9 C0,4.02943725 4.02943725,0 9,0 C11.3869484,0 13.6761336,0.948211563 15.363961,2.63603897 C17.0517884,4.32386638 18,6.61305159 18,9 Z M7.421,9 L10.965,5.491 C11.1759653,5.27985604 11.2582614,4.9722023 11.180888,4.68392898 C11.1035147,4.39565565 10.8782267,4.17055832 10.589888,4.09342897 C10.3015493,4.01629961 9.99396533,4.09885603 9.783,4.31 L5.655,8.45 C5.34044005,8.76519877 5.32899372,9.27191876 5.629,9.601 L9.696,13.681 C9.90418507,13.9017986 10.2158739,13.9920884 10.5098428,13.9167533 C10.8038116,13.8414181 11.0336588,13.6123495 11.1099908,13.3186379 C11.1863228,13.0249264 11.097091,12.712933 10.877,12.504 L7.421,9 Z" id="Shape"></path>
        </g>
    </g>
</svg>