<svg xmlns="http://www.w3.org/2000/svg" width="587.667" height="488.748">
    <defs>
        <style>
            .cls-1{fill:#8cc63f}
        </style>
    </defs>
    <g id="그룹_967" data-name="그룹 967" transform="translate(-314.98 -327.15)">
        <path id="사각형_52" data-name="사각형 52" class="cls-1" d="M4.189 0a4.189 4.189 0 0 1 4.189 4.189V51.4H0V4.189A4.189 4.189 0 0 1 4.189 0z" transform="translate(387.964 754.242)"/>
        <path id="패스_14672" data-name="패스 14672" d="M547.318 451.28c-.762-.881-5.608-10.036-9.4-10.288 0 0-1.174.01-1.488-.371-.752-.922.16-1 .865-1.931 1.823-2.436 3.409-7.616-1.818-11.056-2.93-1.921-9.1-.3-10.252 4.918s3.651 7.976 4.67 8.157c.855.154 2.029 0 1.931.917-.062.52-1.7.891-2.436 1.725a9.326 9.326 0 0 0-2.333 4.763c-.149 1.066-2.374 7.94-2.436 9.835-.031.922 1.612 2.173 2.636 2.23 1.066.057 1.529-1.1 1.72-1.725.108-.324-.536-.664-.324-1.73.6-2.945 1.519-7.606 2.255-7.791.633-.155 1.658 5.989.34 8.708-.7 1.452-1.838 3.589-1.838 4.732 0 1.663 1.488 3 1.236 5.623-.031.283-1.55.752-1.952 1.869-.1.273-.052.443.082.556h-2.152v-6.437h-6.437v-6.437h-6.437v-6.365c1.787.026 3.651-.026 4.181-.819.844-1.277-.221-1.318-.149-2.724a57.7 57.7 0 0 0-.371-10.33c-.16-1.117-.747-4.125-.8-5.263-.257-6.658-1.468-9.717-1.133-9.985 1.014-.814 2.935 3.79 3.378 4.588.33.592.072 2.461.814 2.734.958.36 2.111 1.159 3.141-.3a3.6 3.6 0 0 0-.474-3.651c-.767-.886-5.6-10.036-9.4-10.289 0 0-1.169.005-1.478-.371-.767-.927.16-.994.86-1.936 1.823-2.436 3.414-7.611-1.828-11.045-2.915-1.926-9.094-.309-10.237 4.918-1.159 5.221 3.641 7.971 4.665 8.157.855.149 2.024 0 1.921.911-.051.525-1.689.886-2.436 1.72a9.486 9.486 0 0 0-2.322 4.768c-.16 1.061-2.374 7.935-2.431 9.835-.031.927 1.607 2.173 2.631 2.23 1.066.057 1.519-1.1 1.72-1.725.1-.324-.541-.664-.319-1.73.582-2.945 1.509-7.606 2.25-7.8.623-.154 1.663 5.994.345 8.713-.705 1.457-1.843 3.589-1.843 4.732 0 1.663 1.478 3 1.231 5.623-.021.283-1.54.752-1.952 1.869-.165.448.1.6.433.659h-3.27v-6.437h-6.437V431.8H488v-6.437h-.041a3.022 3.022 0 0 0 2.194-.757c.845-1.287-.221-1.318-.149-2.724a56.74 56.74 0 0 0-.386-10.335c-.16-1.117-.731-4.13-.783-5.252-.263-6.663-1.478-9.727-1.138-9.995 1.02-.809 2.93 3.79 3.378 4.588.335.592.072 2.461.819 2.739.953.35 2.111 1.159 3.136-.3a3.6 3.6 0 0 0-.474-3.661c-.762-.875-5.6-10.036-9.4-10.289 0 0-1.164.01-1.478-.371-.762-.917.16-.994.865-1.931 1.818-2.436 3.409-7.606-1.833-11.051-2.915-1.916-9.089-.3-10.237 4.923s3.641 7.971 4.665 8.157c.85.154 2.024 0 1.926.906-.062.53-1.694.9-2.436 1.73a9.429 9.429 0 0 0-2.333 4.763c-.154 1.061-2.374 7.94-2.436 9.83-.021.932 1.622 2.173 2.647 2.235 1.066.062 1.519-1.1 1.72-1.72.1-.335-.546-.664-.324-1.73.587-2.945 1.509-7.616 2.255-7.8.623-.16 1.658 5.989.34 8.713-.705 1.452-1.838 3.589-1.838 4.727 0 1.668 1.478 3 1.226 5.623-.021.278-1.55.752-1.952 1.869-.17.474.124.623.484.675h-1.287v-6.437h-6.437v-6.437h-6.437v-6.437h-6.437v-6.437h-.355c.767-.875-.015-1.241.355-2.487 1.014-3.368-.515-14.31.3-17.74a28.76 28.76 0 0 0 .788-3.4c.232-2.183.371-5.973.371-5.973s.118-3.311.474-3.553c.494-.34 1.529.788 1.91 2.575.453 2.106.232 4.99.412 5.453.263.633-.242 2.451.464 2.817.906.469 1.952 1.416 3.157.1a3.641 3.641 0 0 0-.01-3.692c-.288-.433.149-4.665-.942-7.755-1.349-3.759-4.387-6.478-6.447-6.761a7.53 7.53 0 0 1-2.286-.922c-.69-.973.232-.984 1-1.869 1.988-2.3 3.939-7.348-1.04-11.148-2.786-2.122-9.058-.947-10.567 4.186s3.074 8.213 4.083 8.466c.834.211 2.019.144 1.849 1.045-.093.52-1.751.772-2.544 1.545a9.458 9.458 0 0 0-2.657 4.6c-.18.808-.783.994-1.89.834-1.658-5.381-3.3-10.742-4.918-16.015-.129-4.325-.53-9.4-.021-11.54a28.557 28.557 0 0 0 .778-3.4c.237-2.178.381-5.973.381-5.973s.118-3.311.474-3.553c.489-.34 1.514.793 1.9 2.575.463 2.106.232 4.995.422 5.453.252.628-.242 2.451.453 2.817.911.474 1.957 1.416 3.157.1a3.607 3.607 0 0 0 0-3.687c-.294-.438.149-4.665-.958-7.76-1.334-3.759-4.372-6.478-6.447-6.761a7.467 7.467 0 0 1-2.271-.922c-.7-.973.232-.978.994-1.864 1.993-2.3 3.934-7.353-1.045-11.154-2.776-2.116-9.053-.942-10.561 4.192l-.01.01c-2.24-7.276-4.13-13.321-5.5-17.554a1.99 1.99 0 0 0 .556-.381 3.643 3.643 0 0 0 0-3.687c-.294-.438.139-4.665-.958-7.76-1.339-3.759-4.377-6.478-6.447-6.761a15.218 15.218 0 0 1-1.56-.515c-.252-.458-.5-.932-.752-1.385a9.353 9.353 0 0 0 1.035-.891c1.993-2.3 3.934-7.348-1.045-11.148-1.5-1.143-4-1.292-6.246-.412-1.179-2.348-3.543-6.782-6.72-12.647.052.082.072.2.165.242.9.474 1.946 1.416 3.157.1a3.632 3.632 0 0 0-.01-3.687c-.294-.438.149-4.665-.958-7.76-1.334-3.759-4.372-6.478-6.437-6.761a7.508 7.508 0 0 1-2.281-.922c-.7-.968.232-.978.994-1.864 1.993-2.3 3.944-7.353-1.045-11.154-2.4-1.833-7.42-1.19-9.707 2.353q-2.2-4-4.475-8.126c.2-2.209.324-5.35.324-5.35s.118-3.311.474-3.553c.489-.34 1.519.793 1.9 2.575.463 2.111.232 4.995.422 5.453.263.633-.242 2.451.463 2.822.9.469 1.952 1.411 3.146.093a3.607 3.607 0 0 0 0-3.687c-.294-.438.149-4.665-.958-7.76-1.334-3.759-4.372-6.478-6.447-6.761a7.569 7.569 0 0 1-2.271-.917c-.7-.973.232-.984.994-1.869 1.993-2.3 3.944-7.353-1.045-11.154-2.776-2.116-9.053-.942-10.561 4.192a7.279 7.279 0 0 0-.16.958q-2.6-4.727-5.077-9.248l.031-.17a27.712 27.712 0 0 0 .772-3.4c.232-2.183.381-5.978.381-5.978s.113-3.311.474-3.553c.484-.34 1.519.793 1.9 2.575.453 2.111.232 4.995.422 5.453.252.633-.242 2.451.453 2.822.917.469 1.962 1.411 3.162.093a3.643 3.643 0 0 0 0-3.687c-.294-.438.139-4.665-.958-7.76-1.339-3.759-4.377-6.478-6.447-6.761a7.663 7.663 0 0 1-2.281-.917c-.7-.973.242-.984 1-1.869 1.982-2.3 3.934-7.353-1.045-11.154-2.776-2.116-9.053-.942-10.572 4.192s3.079 8.208 4.083 8.46c.844.211 2.024.144 1.859 1.045-.088.525-1.746.772-2.554 1.55-.2.206-.433.453-.664.726-1.8-3.321-3.44-6.365-4.815-8.965-.041-4.593-.623-10.7-.041-13.11a27.7 27.7 0 0 0 .772-3.4c.242-2.183.386-5.978.386-5.978s.118-3.311.469-3.553c.494-.34 1.519.793 1.905 2.575.458 2.111.232 4.995.422 5.453.247.633-.242 2.451.453 2.822.911.469 1.957 1.411 3.157.093a3.607 3.607 0 0 0 0-3.687c-.294-.438.149-4.665-.958-7.76-1.339-3.759-4.372-6.478-6.447-6.761a7.569 7.569 0 0 1-2.271-.917c-.7-.973.232-.984.994-1.869 1.993-2.3 3.934-7.353-1.045-11.154-2.776-2.116-9.053-.942-10.561 4.192s3.069 8.208 4.073 8.46c.845.211 2.034.144 1.864 1.045-.093.525-1.751.772-2.544 1.55a9.348 9.348 0 0 0-2.667 4.588c-.17.8-.747.994-1.813.855a736.694 736.694 0 0 0-4.4-7.559c.7-.839-.046-1.215.319-2.441 1.009-3.368-.52-14.305.3-17.735a27.7 27.7 0 0 0 .772-3.4c.232-2.183.386-5.978.386-5.978s.118-3.311.469-3.553c.484-.34 1.519.793 1.905 2.575.448 2.111.227 4.995.422 5.453.247.633-.242 2.451.448 2.817.917.474 1.962 1.416 3.162.1a3.643 3.643 0 0 0 0-3.687c-.293-.438.139-4.665-.958-7.76-1.339-3.759-4.372-6.478-6.442-6.761a7.684 7.684 0 0 1-2.286-.917c-.685-.973.237-.984 1-1.869 1.993-2.3 3.934-7.353-1.04-11.154-2.781-2.116-9.058-.942-10.567 4.192s3.074 8.208 4.078 8.46c.839.211 2.019.144 1.859 1.045-.093.525-1.756.772-2.554 1.55a9.42 9.42 0 0 0-2.657 4.588c-.227 1.05-1.133 1.066-2.981.628a1.6 1.6 0 0 0-1.071.288v-.345h-5.149v-6h-4.717V61.47h-4.542c.036-.041.108-.067.108-.113.046-.587.1-6.159.911-8.929.33-1.138 1.112-1.323 1.565-1.241.978.17 2.482 7.714 2.693 8.744.2.968-.705 3.383.3 3.45 1.524.1 4.083-1.931 4.568-3.146.572-1.426-.494-1.241-.711-2.631-.546-3.476-.829-5.968-1.571-9.413a27.157 27.157 0 0 0-.778-3.4c-.731-2.065-1.3-3.811-1.3-3.811s-.747-1.251-.412-1.524c1.02-.808 3.512 3.569 3.955 4.362.335.592.077 2.467.814 2.739.963.355 2.116 1.153 3.146-.3a3.628 3.628 0 0 0-.474-3.656c-.767-.881-5.613-10.036-9.408-10.283a7.526 7.526 0 0 1-2.343-.757c-.757-.922.17-.994.865-1.931 1.828-2.436 3.419-7.611-1.823-11.051-2.915-1.921-9.1-.3-10.242 4.918s3.646 7.976 4.665 8.157c.85.154 2.029 0 1.926.911-.062.53-1.694.891-2.436 1.725a9.426 9.426 0 0 0-2.333 4.768c-.149 1.061-2.374 7.935-2.431 9.83-.026.932 1.612 2.173 2.636 2.235 1.066.057 1.524-1.1 1.725-1.725.1-.324-.541-.664-.324-1.73.587-2.945 1.514-7.606 2.25-7.8 1.014-.252 1.282 10.412.736 11.838a51.344 51.344 0 0 0-1 7.23c-.021.278-1.354 1-1.761 2.116a.436.436 0 0 0 .051.422h-16.955A11.044 11.044 0 0 1 267 53.782c-.268-2.7 1.74-7.544 3.723-12.451.427.659 1.076 1.061 1.648.721 1.612-.968 1.622-3.445 1.715-4.295a17.02 17.02 0 0 1 1.5-6.22c1.612-3.862.51-4.866-.536-5.041a1.2 1.2 0 0 0-.654.185c-.088-7.343-2.518-17.935-9.32-21.926-4.83-2.837-12.492-5.767-18.26 0s-9.616 23.069-11.052 37.008 6.246 11.535 6.246 17.3-9.995 7.395-15.767 8.842-27.034 10.3-33.9 17.163c-9.877 9.866-88.06 110.207-100.846 127.875-3.666 5.077-38.378 47.987-44.146 62.406S9.381 435.61 9.381 435.61s-5.551 22.354-7.2 28.837c-2.508 9.835 3.363 19.228 4.8 20.665s12.5 6.251 25 4.81 17.781-3.363 19.707-7.209 6.73-13.934 3.357-15.381c-3.357-1.437-7.209 3.368-11.535 8.661-3.476 4.243-12.492 4.315-13.934.469-.7-1.859 3.084.3 7.2 0 3.955-.278 8.378-2.091 8.378-7.76 0-2.884-12.22 2.956-15.1-5.7-1.308-3.924-1.437-16.344-1.437-21.633 0-2.585 32.22-151.753 38.425-161.053.448-.675.927-1.323 1.4-1.972.783-1.056 1.581-2.1 2.374-3.141q1.661-2.178 3.327-4.351 2.008-2.611 4.022-5.211 2.371-3.059 4.768-6.107 2.7-3.437 5.391-6.869 2.85-3.63 5.685-7.261 3.012-3.854 6.056-7.7 3.252-4.117 6.535-8.224 3.26-4.1 6.509-8.218 3.128-3.978 6.262-7.956 3.229-4.109 6.514-8.172 3.275-4.078 6.55-8.141 2.858-3.569 5.669-7.168c1.715-2.188 3.424-4.372 5.165-6.535a710.114 710.114 0 0 1 5.53-6.761c1.565-1.89 3.141-3.775 4.66-5.7.855-1.081 1.658-2.194 2.482-3.3.978-1.323 2.06-2.564 3.157-3.79 4.356-4.83 9-9.475 13.388-14.31 1.267-1.4 2.518-2.822 3.738-4.269 2.688-3.208 5.345-6.632 8.775-9.1a14.713 14.713 0 0 1 4.773-2.5c1.447-.34-1.8 28.157-2.631 42.457-2 34.084-8.09 91.232-8.09 95.969 0 6.73-12.492 194.174-13.455 196.1s-33.646 5.773-39.413 6.251-18.265 10.572-14.9 12.976 77.807.484 80.207-1.921c.7-.705-1.37-13.064.031-30.423 3.414-42.241 7.863-114.09 8.2-119.538.479-7.693 5.633-44.3 7.214-46.1 3.373-3.847 52.493-5.566 59.218-1.72.34.2 5.258-2.441 8.584 13.306 9.593 45.387 24.82 153.138 26.6 161.346 2.4 11.056.021 24.315 3.862 25.768 2.709 1.014 25.644.273 37.261.005 8.713-.211 32.2.474 37.014-.963s-6.246-8.172-9.619-8.172c-3.357 0-34.2-8.816-38.044-9.768-3.852-.968-7.611-15.222-9.053-21.952s-24.8-178.468-25.284-182.309-1.287-34.867-1.287-44.2c0-15.876 2.3-70.341 3.007-75.094 1.071-7.158 2.07-18.857 5.149-18.883 4.3-.031 12.328 16.607 14.568 20.814 3.847 7.209 81.711 150.435 84.115 157.644s36.046 129.291 38.929 139.389 1.442 22.106 1.442 28.353-8.651 8.656-10.088 13.461c-1.452 4.81 7.2 4.331 12.492 2.4s13.939-1.437 16.339-2.873c2.4-1.452 12.019 0 15.86.474s21.638 2.4 25.479 2.4c2.585 0 9.058-1.74 12.462-3.749l2.111 2.111v.041h.041l.057.057.062-.057H539.5v-10.133c1.519-.01 2.956-.134 3.409-.808.855-1.282-.221-1.318-.149-2.729a56.79 56.79 0 0 0-.376-10.335c-.16-1.112-.742-4.119-.783-5.252-.273-6.663-1.478-9.722-1.148-9.99 1.02-.814 2.94 3.79 3.383 4.583.34.592.067 2.467.814 2.74.953.36 2.111 1.164 3.136-.3a3.615 3.615 0 0 0-.468-3.656zm-12.209 9.6c.726-.948 1.21-.345 1.663-.268.973.175 1.725 11.983 1.725 13.043-.005.845-1.91 2.673-1.849 3.2h-3.588v-6.226c1.138.005 2.194-.093 2.219-.463.021-.2-.108-1.045-.257-2.2-.165-1.236-1.02-3.074-1.045-4.547-.032-1.156.257-1.398 1.132-2.536zm-24.8-16.566c.01-.2-.124-1.051-.263-2.2-.16-1.241-1.025-3.074-1.056-4.547-.021-1.164.263-1.4 1.138-2.539.721-.942 1.2-.35 1.668-.268.973.17 1.73 11.988 1.72 13.043 0 .927-2.3 3.059-1.73 3.3h-4.475v-6.344c1.389.058 2.957.017 2.999-.441zm-5.072.314s.2.021.453.041h-.669zm-22.889-35.361c.726-.947 1.21-.345 1.668-.263.978.17 1.73 11.983 1.72 13.038 0 .942-2.4 3.141-1.7 3.316h-2.472v-6.4c.551-.062.942-.18.963-.407.01-.2-.118-1.05-.257-2.194-.165-1.241-1.03-3.079-1.061-4.547-.014-1.164.264-1.41 1.139-2.539zm-4.887 9.6s.263.026.644.057h-.948zm-24.8-25.69a.427.427 0 0 0-.041-.1c.118.051.211.062.319.1zm-2.518-18.548c.705.5.886 9.928.736 12.853q-1.931-6.218-3.924-12.683a2.038 2.038 0 0 0 1.37-.453c.794-.879 1.438.012 1.819.285zm-3.919-11.9c1.3-1.112 1.287-2.92 1.689-2.992.922-.17-.5 6.277-2.817 9.032q-.788-2.549-1.571-5.1a5.009 5.009 0 0 0 2.7-.933zm-17.574-52.27c.85.211 2.034.144 1.864 1.045-.093.52-1.73.767-2.534 1.54-.4-1.292-.778-2.528-1.159-3.769a5.665 5.665 0 0 0 1.829 1.184zm-34.815-78.642s.118-3.311.474-3.553c.489-.34 1.514.793 1.91 2.575.453 2.111.232 4.995.412 5.453s-.021 1.55.118 2.25c-.927-1.725-1.91-3.533-2.966-5.474.032-.741.052-1.251.052-1.251zm-26.977-47.987c.839.211 2.024.144 1.854 1.045-.052.263-.494.458-1.025.685-.324-.6-.654-1.2-.989-1.8.051.024.124.06.16.07zM332.8 116.45c1.3-1.112 1.277-2.915 1.689-2.987.726-.134-.031 3.914-1.529 6.962a225.428 225.428 0 0 0-1.8-3.224 4.187 4.187 0 0 0 1.64-.751zm-13.672-29.284c.587.422.808 6.9.788 10.809q-1.4-2.325-2.7-4.48v-6.556c.031-.026.072-.026.093-.051.791-.888 1.443.005 1.819.278zm-8.6-11.148a5.339 5.339 0 0 0 4.691-.747c1.3-1.112 1.282-2.915 1.689-2.987 1.009-.185-.808 7.662-3.548 9.748V79.06h-4.295v-3.069a1.894 1.894 0 0 1 1.458.026zm185.739 395.921c-7.693-2.889-21.633-18.265-26.911-28.363-.134-.247-.3-.644-.484-1.045h4.6l33.517 33.517c-3.641-1.483-7.545-2.925-10.722-4.109z" transform="translate(354.547 325.711)" style="fill:#bab7b7"/>
        <path id="사각형_53" data-name="사각형 53" d="M52.051 0h16.862a52.051 52.051 0 0 1-52.051 52.051H0A52.051 52.051 0 0 1 52.051 0z" transform="translate(400.44 705.805)" style="fill:#009245"/>
        <path id="사각형_54" data-name="사각형 54" d="M0 0h16.862a52.051 52.051 0 0 1 52.051 52.051H52.051A52.051 52.051 0 0 1 0 0z" transform="rotate(-180 191.946 390.134)" style="fill:#39b54a"/>
        <path id="사각형_55" data-name="사각형 55" class="cls-1" d="M0 0h10.473a41.473 41.473 0 0 1 41.473 41.473H41.473A41.473 41.473 0 0 1 0 0z" transform="rotate(-161.476 255.563 335.316)"/>
    </g>
</svg>
