<svg xmlns="http://www.w3.org/2000/svg" width="122.738" height="90.87" viewBox="0 0 122.738 90.87">
    <defs>
        <style>
            .cls-1{fill:#f0a3a6}.cls-3{fill:#db7476}.cls-4{fill:#fff}.cls-5{fill:#4c2512}.cls-6{fill:#ca3e65}
        </style>
    </defs>
    <g id="그룹_996" data-name="그룹 996" transform="translate(459.605 -675.607)">
        <g id="그룹_995" data-name="그룹 995" transform="translate(-459.605 675.607)">
            <g id="그룹_994" data-name="그룹 994">
                <g id="그룹_993" data-name="그룹 993">
                    <path id="패스_14673" data-name="패스 14673" class="cls-1" d="M-359.077 701.66c-4.573-9.883-10.491-20.219-20.474-24.257-5.35-2.163-11.271-2.235-17.027-2.081-9.086.244-18.594 1.116-26.235 6.123-9.8 6.418-14.535 18.219-18.7 29.284-2.782 7.383-5.611 15.1-4.88 22.967.81 8.718 6.058 16.609 12.971 21.831s15.355 8.008 23.852 9.434a86.7 86.7 0 0 0 40.347-2.84c4.2-1.329 8.4-3.043 11.641-6.065 4.086-3.812 6.243-9.374 7.091-14.947 2.052-13.509-2.862-27.074-8.586-39.449z" transform="translate(460.626 -675.273)"/>
                    <path id="패스_14674" data-name="패스 14674" class="cls-1" d="M-430.379 694.856a38.954 38.954 0 0 0-4.02-6.562 12.831 12.831 0 0 0-6.128-4.4 17 17 0 0 0-5.977-.37 86.835 86.835 0 0 0-11.451 1.547 3.159 3.159 0 0 0-1.22.433c-1.251.882-.73 2.847-.078 4.245 2 4.3 4.367 8.966 8.7 10.764 2.9 1.2 6.185.875 9.249.218s6.1-1.628 9.23-1.66z" transform="translate(459.938 -674.855)"/>
                    <path id="패스_14675" data-name="패스 14675" class="cls-1" d="M-371.3 694.856a39.026 39.026 0 0 1 4.02-6.562 12.831 12.831 0 0 1 6.128-4.4 17 17 0 0 1 5.977-.37 86.85 86.85 0 0 1 11.452 1.547 3.165 3.165 0 0 1 1.22.433c1.25.882.729 2.847.078 4.245-2 4.3-4.367 8.966-8.7 10.764-2.9 1.2-6.185.875-9.248.218s-6.1-1.628-9.231-1.66z" transform="translate(464.48 -674.855)"/>
                    <path id="패스_14676" data-name="패스 14676" d="M-385.672 722.678a20.354 20.354 0 0 0-9.721-3.658 33.091 33.091 0 0 0-12.641.323c-4.045 1.028-7.89 3.64-9.5 7.547-2.138 5.172.25 11.489 4.6 14.938s10.2 4.41 15.7 3.942c5.917-.5 12.233-3 14.914-8.384a12.3 12.3 0 0 0-3.352-14.708z" transform="translate(462.07 -673.054)" style="fill:#f8d0d1"/>
                    <path id="패스_14677" data-name="패스 14677" class="cls-3" d="M-406.189 728.159a2.669 2.669 0 0 0-2.646.519 5.021 5.021 0 0 0-1.477 2.405 4.925 4.925 0 0 0-.207 2.519A2.592 2.592 0 0 0-409 735.5a2.983 2.983 0 0 0 2.891-.814 2.568 2.568 0 0 0 1-2.414 2.421 2.421 0 0 0-1.977-1.553 1.288 1.288 0 0 1-.9-.408.792.792 0 0 1 .194-.96 8.2 8.2 0 0 1 1.603-1.192z" transform="translate(462.466 -672.57)"/>
                    <path id="패스_14678" data-name="패스 14678" class="cls-3" d="M-394.849 728.159a2.669 2.669 0 0 1 2.646.519 5.019 5.019 0 0 1 1.476 2.405 4.914 4.914 0 0 1 .207 2.519 2.591 2.591 0 0 1-1.522 1.9 2.984 2.984 0 0 1-2.892-.814 2.57 2.57 0 0 1-1-2.414 2.424 2.424 0 0 1 1.977-1.553 1.291 1.291 0 0 0 .9-.408.793.793 0 0 0-.2-.96 8.16 8.16 0 0 0-1.592-1.194z" transform="translate(463.215 -672.57)"/>
                    <path id="패스_14679" data-name="패스 14679" class="cls-4" d="M-422.878 723.842c3.485.2 7.31-1.539 8.435-4.766a9.515 9.515 0 0 0-.842-7.528 9.257 9.257 0 0 0-4.132-3.538c-3.161-1.5-7.175.037-9.316 2.755-2.448 3.11-2.683 7.995.155 10.771a8.872 8.872 0 0 0 5.7 2.306z" transform="translate(461.439 -673.625)"/>
                    <path id="패스_14680" data-name="패스 14680" class="cls-5" d="M-418.566 714.3a4.142 4.142 0 0 1-.574 4.174 4.164 4.164 0 0 1-2.53 1.168 4.464 4.464 0 0 1-3.493-.84 2.747 2.747 0 0 1-.706-3.368 1.438 1.438 0 0 0 1.472-.408 1.494 1.494 0 0 0 .26-1.527c-.191-.468-.633-.927-.444-1.4a.979.979 0 0 1 .416-.43 3.457 3.457 0 0 1 3.375-.05 4.868 4.868 0 0 1 2.224 2.681z" transform="translate(461.667 -673.431)"/>
                    <path id="패스_14681" data-name="패스 14681" class="cls-4" d="M-380.819 722.416c3.486.2 7.311-1.539 8.435-4.765a9.517 9.517 0 0 0-.841-7.529 9.266 9.266 0 0 0-4.134-3.537c-3.16-1.5-7.174.037-9.315 2.756-2.448 3.109-2.684 7.995.153 10.77a8.873 8.873 0 0 0 5.702 2.305z" transform="translate(463.595 -673.698)"/>
                    <path id="패스_14682" data-name="패스 14682" class="cls-5" d="M-376.506 712.87a4.144 4.144 0 0 1-.574 4.176 4.17 4.17 0 0 1-2.529 1.167 4.468 4.468 0 0 1-3.494-.84 2.748 2.748 0 0 1-.706-3.368 1.437 1.437 0 0 0 1.472-.407 1.5 1.5 0 0 0 .261-1.529c-.192-.467-.633-.927-.444-1.395a.976.976 0 0 1 .416-.431 3.454 3.454 0 0 1 3.375-.049 4.861 4.861 0 0 1 2.223 2.676z" transform="translate(463.823 -673.504)"/>
                    <path id="패스_14683" data-name="패스 14683" class="cls-6" d="M-367.588 728.61a8.425 8.425 0 0 0-5.637-1.633 7.085 7.085 0 0 0-5.083 2.851 4.709 4.709 0 0 0-.922 3.552c.424 2.162 2.728 3.432 4.884 3.681a10.058 10.058 0 0 0 6.289-1.363c1.363-.818 2.621-2.173 2.571-3.781a4.526 4.526 0 0 0-2.102-3.307z" transform="translate(464.07 -672.624)"/>
                    <path id="패스_14684" data-name="패스 14684" class="cls-6" d="M-433.046 728.61a8.421 8.421 0 0 1 5.636-1.633 7.088 7.088 0 0 1 5.084 2.851 4.709 4.709 0 0 1 .921 3.552c-.423 2.162-2.728 3.432-4.883 3.681a10.061 10.061 0 0 1-6.29-1.363c-1.362-.818-2.621-2.173-2.571-3.781a4.53 4.53 0 0 1 2.103-3.307z" transform="translate(461.208 -672.624)"/>
                    <path id="패스_14685" data-name="패스 14685" class="cls-3" d="M-420.679 692.724a6.972 6.972 0 0 0-2.657 2.9 10.8 10.8 0 0 0 4.75-.47 2.111 2.111 0 0 0 1.345-.963 1.542 1.542 0 0 0-1.061-1.956 3.059 3.059 0 0 0-2.377.489z" transform="translate(461.813 -674.408)"/>
                    <path id="패스_14686" data-name="패스 14686" class="cls-3" d="M-380.326 692.724a6.977 6.977 0 0 1 2.655 2.9 10.794 10.794 0 0 1-4.748-.47 2.109 2.109 0 0 1-1.345-.963 1.542 1.542 0 0 1 1.06-1.956 3.061 3.061 0 0 1 2.378.489z" transform="translate(463.836 -674.408)"/>
                </g>
            </g>
        </g>
        <path id="패스_14687" data-name="패스 14687" class="cls-5" d="M-391.4 747.975a1.394 1.394 0 0 1 1.914.177c.518.5.8 1.186 1.276 1.725a3.314 3.314 0 0 0 3.914.732 3.314 3.314 0 0 0 1.625-3.634c-.128-.508-.378-.98-.489-1.493a1.481 1.481 0 0 1 .362-1.451 1.288 1.288 0 0 1 1.618.14 2.789 2.789 0 0 1 .764 1.561 6.754 6.754 0 0 1-1.244 5.817 6.418 6.418 0 0 1-5.822 1.884 5.391 5.391 0 0 1-4.139-4.114 1.568 1.568 0 0 1 .221-1.344z" transform="translate(3.831 3.846)"/>
    </g>
</svg>
