<svg xmlns="http://www.w3.org/2000/svg" width="95.535" height="85.869" viewBox="0 0 95.535 85.869">
    <defs>
        <style>
            .cls-1{fill:#3f3c43}.cls-3{fill:#4c2512}.cls-5{fill:#32170b}.cls-6{fill:#e27477}
        </style>
    </defs>
    <g id="그룹_1000" data-name="그룹 1000" transform="translate(-87.735 -89.223)">
        <path id="패스_14709" data-name="패스 14709" class="cls-1" d="M107.658 102.852a10.748 10.748 0 0 0-2.093-10.165 10.338 10.338 0 0 0-9.7-3.262 10.5 10.5 0 0 0-7.643 6.892 8.936 8.936 0 0 0 .383 6.791 9.789 9.789 0 0 0 6.86 4.735 25.689 25.689 0 0 0 8.533-.107z"/>
        <path id="패스_14710" data-name="패스 14710" class="cls-1" d="M163.348 102.852a10.75 10.75 0 0 1 2.092-10.165 10.341 10.341 0 0 1 9.7-3.262 10.5 10.5 0 0 1 7.642 6.892 8.927 8.927 0 0 1-.383 6.791 9.785 9.785 0 0 1-6.86 4.735 25.684 25.684 0 0 1-8.532-.107z"/>
        <path id="패스_14711" data-name="패스 14711" d="M181.327 155.463c3.792-17.883-1.144-38.074-13.516-51.359a41.056 41.056 0 0 0-19.431-11.492c-6-1.581-12.31-1.351-18.482-.784-5.583.513-11.229 1.316-16.356 3.619-8.659 3.888-15.126 11.83-18.859 20.674s-4.971 18.57-5.353 28.186c-.161 4.045-.164 8.186 1.1 12.023 1.971 5.96 6.882 10.576 12.46 13.292 12.667 6.168 27.109 5.444 40.732 5.444a79.871 79.871 0 0 0 18.9-2.1c9.416-2.353 16.713-7.637 18.805-17.503z" style="fill:#e8dfda"/>
        <path id="패스_14712" data-name="패스 14712" class="cls-1" d="M97.795 127.31c-2.209 3.691-3.321 8.37-1.713 12.369 2.114 5.26 8.321 7.755 13.9 7.428a18.286 18.286 0 0 0 13.7-7.133c3.145-4.337 3.856-10.551 1.228-15.23-2.714-4.834-8.619-7.357-14.045-6.612s-10.225 4.422-13.07 9.178z"/>
        <path id="패스_14713" data-name="패스 14713" class="cls-1" d="M174.368 127.31c2.208 3.691 3.32 8.37 1.713 12.369-2.115 5.26-8.322 7.755-13.9 7.428a18.286 18.286 0 0 1-13.7-7.133c-3.145-4.337-3.856-10.551-1.229-15.23 2.714-4.834 8.619-7.357 14.045-6.612s10.225 4.422 13.071 9.178z"/>
        <path id="패스_14714" data-name="패스 14714" class="cls-3" d="M134.749 147.626a4.774 4.774 0 0 0 1.758.651c2.439.356 4.634-1.821 5.775-3.761a2.722 2.722 0 0 0 .495-1.625 1.966 1.966 0 0 0-1.134-1.459 4.948 4.948 0 0 0-1.855-.4 53.782 53.782 0 0 0-5.915.005c-1.471.056-2.988.6-2.578 2.4a7.569 7.569 0 0 0 2.2 3.2 6.816 6.816 0 0 0 1.254.989z"/>
        <path id="패스_14715" data-name="패스 14715" class="cls-3" d="M140.2 159.124c-.418-.282-.484-.87-.745-1.306a1.563 1.563 0 0 0-2.283-.364c-.458.4-.777 1.13-1.383 1.1s-.874-.826-1.367-1.211a1.2 1.2 0 0 0-1.284-.109 1.243 1.243 0 0 0-.627 1.144 7.333 7.333 0 0 0 .918 1.937 2.411 2.411 0 0 0 1.774 1.052c1.208.038 2.09-1.1 2.759-2.128a2.29 2.29 0 0 0 1.492 2.235 3.066 3.066 0 0 0 2.724-.4 5.161 5.161 0 0 0 1.765-2.234c.247-.553.367-1.335-.141-1.655a.977.977 0 0 0-1.142.224 5.746 5.746 0 0 0-.724 1.031c-.392.577-1.163 1.071-1.736.684z"/>
        <path id="패스_14716" data-name="패스 14716" d="M112.205 137.137a20.343 20.343 0 0 0 4.148-.189 7.024 7.024 0 0 0 2.453-.736c2.729-1.546 1.767-5.821.48-8.062a8.809 8.809 0 0 0-3.932-3.365c-3.006-1.425-6.824.035-8.861 2.621-1.387 1.761-3.033 6.168-.921 8a4.768 4.768 0 0 0 1.754.856 20.453 20.453 0 0 0 4.879.875z" style="fill:#fff"/>
        <path id="패스_14717" data-name="패스 14717" class="cls-3" d="M116.381 130.947a3.489 3.489 0 0 1-2.952 5.083 4.247 4.247 0 0 1-3.323-.8 2.616 2.616 0 0 1-.673-3.205 1.369 1.369 0 0 0 1.4-.387 1.423 1.423 0 0 0 .247-1.453c-.182-.445-.6-.882-.422-1.328a.931.931 0 0 1 .4-.409 3.289 3.289 0 0 1 3.21-.048 4.631 4.631 0 0 1 2.113 2.547z"/>
        <path id="패스_14718" data-name="패스 14718" class="cls-5" d="M165.087 129.918c.583-.459.316-1.432-.173-1.993a4.473 4.473 0 0 0-4.56-1.162 7.456 7.456 0 0 0-3.867 3 22.677 22.677 0 0 0-2.244 4.481c-.224.546-.414 1.266.024 1.654a.956.956 0 0 0 1.111.012 3.136 3.136 0 0 0 .811-.873 23.7 23.7 0 0 1 3.215-3.59c1.04-.946 2.346-1.846 3.719-1.6.669.123 1.426.493 1.964.071z"/>
        <path id="패스_14719" data-name="패스 14719" class="cls-5" d="M158.42 134.807a14.278 14.278 0 0 1 4.143-1.568 1.793 1.793 0 0 1 .756-.041.684.684 0 0 1 .538.488.706.706 0 0 1-.328.683 2.014 2.014 0 0 1-.744.26l-5.98 1.231z"/>
        <path id="패스_14720" data-name="패스 14720" class="cls-6" d="M101.436 101.99a7.02 7.02 0 0 0-.239-3.639 4.61 4.61 0 0 0-2.376-2.658 3.4 3.4 0 0 0-3.439.377 2.862 2.862 0 0 0-.846 3.309 4.032 4.032 0 0 0 3.141 1.942 17.41 17.41 0 0 1 3.759.669z"/>
        <path id="패스_14721" data-name="패스 14721" class="cls-6" d="M176.465 99.938a5.334 5.334 0 0 1-3.744 1.39 12 12 0 0 0-4.029.555 12.905 12.905 0 0 1 2.3-4 4.871 4.871 0 0 1 4.082-1.689 2.427 2.427 0 0 1 1.9 1.253 2.366 2.366 0 0 1-.509 2.491z"/>
        <path id="패스_14722" data-name="패스 14722" class="cls-6" d="M172.783 157.833a6.673 6.673 0 0 0 3.566-2.222 4.1 4.1 0 0 0 .624-4.065 4.99 4.99 0 0 0-2.247-2.184 10.261 10.261 0 0 0-8.867-.448c-1.737.742-3.4 2.259-3.39 4.175.013 1.788 1.489 3.232 3.065 4.027a10.179 10.179 0 0 0 7.249.717z"/>
        <path id="패스_14723" data-name="패스 14723" class="cls-6" d="M103.831 157.833a6.676 6.676 0 0 0 3.567-2.222 4.1 4.1 0 0 0 .623-4.065 4.99 4.99 0 0 0-2.247-2.184 10.261 10.261 0 0 0-8.867-.448c-1.737.742-3.4 2.259-3.39 4.175.013 1.788 1.49 3.232 3.065 4.027a10.179 10.179 0 0 0 7.249.717z"/>
        <path id="패스_14724" data-name="패스 14724" class="cls-1" d="M115.3 104.731a4.544 4.544 0 0 0-4.067 3.721 6.667 6.667 0 0 0 5.067-1.352 1.632 1.632 0 0 0 .767-1.293c-.058-.775-1.004-1.12-1.767-1.076z"/>
        <path id="패스_14725" data-name="패스 14725" class="cls-1" d="M153.521 104.731a4.543 4.543 0 0 1 4.067 3.721 6.668 6.668 0 0 1-5.068-1.355 1.635 1.635 0 0 1-.767-1.293c.061-.772 1.007-1.117 1.768-1.073z"/>
    </g>
</svg>
