<svg xmlns="http://www.w3.org/2000/svg" width="110.744" height="112">
    <defs>
        <style>
            .cls-1{fill:#c6691b}.cls-2{fill:#e9a43d}.cls-4{fill:#d67562}.cls-5{fill:#4c2512}.cls-6{fill:#fff}
        </style>
    </defs>
    <g id="그룹_999" data-name="그룹 999" transform="translate(-77.27 -364.169)">
        <path id="패스_14689" data-name="패스 14689" class="cls-1" d="M80.845 442.5a50.34 50.34 0 0 0 6.418 11.514c1.844 2.487 5.378 8.515 8.606 8.863a4.527 4.527 0 0 0 4.007-1.739 11.135 11.135 0 0 1-.7 5.792 8.435 8.435 0 0 1 4.506-1.963 1.91 1.91 0 0 1 .332 1.908 6.34 6.34 0 0 0-.423 1.986c.047.68.65 1.388 1.3 1.2.545-.155.884-.863 1.449-.826.448.03.707.511.932.905a7.449 7.449 0 0 0 4.134 3.167c3.347 1.153 7.523 1.59 11.026 2.156a58.279 58.279 0 0 0 26.017-1.875 63.807 63.807 0 0 0 12.407-5.226c1.288-.71 3.559-1.565 4.447-2.828 1.022-1.451.471-3.132.793-4.779.87.864 1.635 1.876 2.427 2.832a5.521 5.521 0 0 1 .651-2.285 1.823 1.823 0 0 1 2.012-.879c.33.116.628.366.976.356a1.4 1.4 0 0 0 .86-.493c2.421-2.317 5.588-4.581 7.3-7.518 1-1.724 3.83-6 3.83-7.792 2.108-4.731 7.73-20.682-.373-22.059a4.789 4.789 0 0 0 2.856-1.053c.734-.737.773-2.239-.169-2.667l1.331-.325c.293-.072-2.388-11.7-2.452-13.025a35.773 35.773 0 0 0-3.252-12.656c-4.117-9.588-11.532-16.481-20.426-21.743-2.712-1.6-11.341-6.73-14.266-4.908a3.736 3.736 0 0 1-1.925.841c-.71-.015-1.383-.91-.916-1.454a2.247 2.247 0 0 0-2.293 1.632q-.042-.593-.082-1.187l-11.929-1.613-.076 1.6-2.327-2.2-.9 4.606c-.617-3.851-3.019-2.487-6.021-1.632-14.868 4.236-26.881 13.591-36.123 25.947a4.655 4.655 0 0 0-1.229 2.759c.027 1.03 1.129 2.046 2.025 1.563.207.783-.751 1.308-1.5 1.6s-1.583 1.137-1.076 1.764c.248.307.689.336 1.058.468a2.277 2.277 0 0 1 1.208 2.738 3.668 3.668 0 0 1-2.233 2.25 10.59 10.59 0 0 1-3.193.572l2.33 1.313c-2.1-1.182-3.884 3.625-4.085 4.689a56.765 56.765 0 0 0-.841 10.019 52.846 52.846 0 0 0 3.572 19.685z"/>
        <path id="패스_14690" data-name="패스 14690" class="cls-2" d="M176.157 437.673c-2.124-2.051-2.33-4.189-3.5-6.775q-1.955-4.308-4.1-8.51-4.3-8.4-9.34-16.327c-2.841-4.462-6.052-8.975-10.628-11.233a11.628 11.628 0 0 0-8.311-.773 6.3 6.3 0 0 0-3.14 1.987c-.447.526-1.807 2.525-1.427 3.312l-1.068-2.216-.373 3.353c-.9-2.378-1.272-5.254-3.583-6.338a11.84 11.84 0 0 0-6.744-.978c-4.2.626-7.947 3.265-10.859 6.563a60.912 60.912 0 0 0-7.244 11.155c-4.6 8.361-9.027 16.832-14.2 24.773l4.773-1.292a11.26 11.26 0 0 0-3.817 2.108 3.6 3.6 0 0 1 2.595 1.176l-3.057.3c2.87 2.464 5.45 5.288 8.471 7.55a44.391 44.391 0 0 0 9.917 5.565 63.486 63.486 0 0 0 23.077 4.19 68.264 68.264 0 0 0 22.934-3.273 49.977 49.977 0 0 0 9.658-4.456 42.058 42.058 0 0 0 4.54-3.108c.283-.225 3.035-2.726 2.731-2.88l-1.274-.648a7.389 7.389 0 0 1 2.776-.427 12.191 12.191 0 0 0-5.182-3.271 53.046 53.046 0 0 0 6.375.473z" transform="translate(0 -2.469)"/>
        <path id="패스_14691" data-name="패스 14691" d="M146.538 436.75c-3.2-2.9-7.912-3.022-12.2-2.988-4.1.032-8.595.215-11.639 3.005-3.583 3.283-3.761 8.837-3.678 13.74.05 2.9.193 6.054 2.062 8.24 1.449 1.695 3.667 2.463 5.81 3.005 6.561 1.661 12.665 1.871 18.961-.736 4.994-2.067 5.271-6.885 4.9-11.745-.332-4.516-.892-9.505-4.216-12.521z" transform="translate(-2.301 -3.705)" style="fill:#fdcf77"/>
        <path id="패스_14692" data-name="패스 14692" class="cls-2" d="M104.387 399.455a6.91 6.91 0 0 0-2.96-6.727 5.725 5.725 0 0 0-7.045.828 5.237 5.237 0 0 0 .071 7.028 6.141 6.141 0 0 0 3.559 1.543 18.176 18.176 0 0 0 3.927-.1z" transform="translate(0 -1.213)"/>
        <path id="패스_14693" data-name="패스 14693" class="cls-2" d="M170.383 399.455a6.908 6.908 0 0 1 2.96-6.727 5.725 5.725 0 0 1 7.045.828 5.238 5.238 0 0 1-.071 7.028 6.144 6.144 0 0 1-3.559 1.543 18.175 18.175 0 0 1-3.927-.1z" transform="translate(-4.602 -1.213)"/>
        <path id="패스_14694" data-name="패스 14694" class="cls-4" d="M100.412 398.5a7.081 7.081 0 0 0-.547-1.851 2.342 2.342 0 0 0-1.387-1.249 1.415 1.415 0 0 0-1.634.664 1.494 1.494 0 0 0 .326 1.606 2.631 2.631 0 0 0 1.529.723c.566.091 1.142.073 1.713.107z" transform="translate(-.802 -1.278)"/>
        <path id="패스_14695" data-name="패스 14695" class="cls-4" d="M176.253 396.5a1.634 1.634 0 0 1 1.111.387.91.91 0 0 1 .305.646 1.236 1.236 0 0 1-.588.916 5.574 5.574 0 0 1-3.485.958 2.753 2.753 0 0 1 .7-2.05 2.654 2.654 0 0 1 1.957-.857z" transform="translate(-4.602 -1.323)"/>
        <path id="패스_14696" data-name="패스 14696" class="cls-4" d="M166.688 441.587a3.6 3.6 0 0 0-2.007-3.44 6.81 6.81 0 0 0-4.092-.515 13.421 13.421 0 0 0-4.425 1.412 3.69 3.69 0 0 0-1.845 1.717 2.75 2.75 0 0 0 .575 2.73 5.172 5.172 0 0 0 2.47 1.456 9.978 9.978 0 0 0 6-.074c1.551-.514 3.122-1.638 3.324-3.286z" transform="translate(-3.442 -3.138)"/>
        <path id="패스_14697" data-name="패스 14697" class="cls-4" d="M102.813 441.587a3.6 3.6 0 0 1 2.007-3.44 6.81 6.81 0 0 1 4.092-.515 13.419 13.419 0 0 1 4.426 1.412 3.688 3.688 0 0 1 1.844 1.717 2.745 2.745 0 0 1-.575 2.73 5.169 5.169 0 0 1-2.469 1.456 9.981 9.981 0 0 1-6-.074c-1.551-.514-3.122-1.638-3.325-3.286z" transform="translate(-1.142 -3.138)"/>
        <path id="패스_14698" data-name="패스 14698" class="cls-5" d="M138.8 439.653c.295-.462.576-1.116.2-1.509a1.2 1.2 0 0 0-.833-.26l-4.836-.256a2.723 2.723 0 0 0-.892.052.942.942 0 0 0-.656.569 1.447 1.447 0 0 0 .235 1.073 9.092 9.092 0 0 0 1.272 2 2.666 2.666 0 0 0 4.108.175 9.042 9.042 0 0 0 1.402-1.844z" transform="translate(-2.323 -3.055)"/>
        <path id="패스_14699" data-name="패스 14699" class="cls-5" d="M134.777 444.7a1.194 1.194 0 0 0 .221.708.426.426 0 0 0 .646.024 21.328 21.328 0 0 1-.007-3.529l-.867.1a23.265 23.265 0 0 0 .007 2.697z" transform="translate(-2.311 -3.202)"/>
        <path id="패스_14700" data-name="패스 14700" class="cls-1" d="M117.21 409.479a11.252 11.252 0 0 0 4 1.591 3.027 3.027 0 0 0-1.074-2.559 2.917 2.917 0 0 0-2.688-.516c-.442.141-.916.554-.757 1a1.036 1.036 0 0 0 .519.484z" transform="translate(-1.636 -1.792)"/>
        <path id="패스_14701" data-name="패스 14701" class="cls-1" d="M154.371 409.479a11.252 11.252 0 0 1-3.995 1.591 3.027 3.027 0 0 1 1.074-2.559 2.918 2.918 0 0 1 2.689-.516c.441.141.915.554.756 1a1.028 1.028 0 0 1-.524.484z" transform="translate(-3.036 -1.792)"/>
        <path id="패스_14702" data-name="패스 14702" class="cls-6" d="M117.671 431.3c3.316.192 6.955-1.464 8.024-4.533a9.053 9.053 0 0 0-.8-7.162 8.821 8.821 0 0 0-3.932-3.365c-3.006-1.424-6.824.036-8.861 2.622-2.33 2.957-2.553 7.6.146 10.245a8.44 8.44 0 0 0 5.423 2.193z" transform="translate(-1.527 -2.373)"/>
        <path id="패스_14703" data-name="패스 14703" class="cls-5" d="M121.99 422.4a3.488 3.488 0 0 1-2.952 5.082 4.25 4.25 0 0 1-3.324-.8 2.614 2.614 0 0 1-.672-3.2 1.367 1.367 0 0 0 1.4-.387 1.423 1.423 0 0 0 .248-1.454c-.183-.444-.6-.882-.422-1.327a.928.928 0 0 1 .4-.41 3.286 3.286 0 0 1 3.21-.047 4.624 4.624 0 0 1 2.112 2.543z" transform="translate(-1.599 -2.37)"/>
        <path id="패스_14704" data-name="패스 14704" class="cls-5" d="M158.373 421.374c.584-.458.317-1.431-.172-1.992a4.471 4.471 0 0 0-4.56-1.162 7.447 7.447 0 0 0-3.867 3 22.623 22.623 0 0 0-2.244 4.481c-.224.545-.414 1.265.024 1.654a.954.954 0 0 0 1.111.011 3.1 3.1 0 0 0 .81-.872 23.757 23.757 0 0 1 3.216-3.591c1.04-.945 2.346-1.846 3.719-1.6.669.123 1.426.497 1.963.071z" transform="translate(-3.1 -2.339)"/>
        <path id="패스_14705" data-name="패스 14705" class="cls-5" d="M151.706 426.264a14.272 14.272 0 0 1 4.144-1.568 1.792 1.792 0 0 1 .756-.042.681.681 0 0 1 .537.488.7.7 0 0 1-.327.683 2 2 0 0 1-.744.26l-5.98 1.231z" transform="translate(-3.095 -2.469)"/>
        <g id="그룹_998" data-name="그룹 998" transform="translate(121.211 439.7)">
            <path id="패스_14706" data-name="패스 14706" class="cls-5" d="M146.94 453.136a11.892 11.892 0 0 1-2.542 3.9 12.524 12.524 0 0 1-12.944 2.822 9.384 9.384 0 0 1-.654-.262 12.5 12.5 0 0 1-7.233-11.794 4.134 4.134 0 0 1 .878-2.645 3.393 3.393 0 0 1 2.084-.981 10.136 10.136 0 0 1 1.58-.14l15.9-.533c.944-.028 1.888-.065 2.832-.093a12.507 12.507 0 0 1 .099 9.726z" transform="translate(-123.551 -443.407)"/>
            <path id="패스_14707" data-name="패스 14707" class="cls-6" d="M143.033 447.566a5.02 5.02 0 0 1-3.205 1.065 50.362 50.362 0 0 1-9.71.271 3.875 3.875 0 0 1-2.318-.813c-1.009-.963-.813-2.6-1.271-3.916a10.136 10.136 0 0 1 1.58-.14l15.9-.533a1.7 1.7 0 0 1 .01.225c.024 1.355-.014 2.887-.986 3.841z" transform="translate(-123.551 -443.407)"/>
            <path id="패스_14708" data-name="패스 14708" d="M146.94 453.136a11.892 11.892 0 0 1-2.542 3.9 12.524 12.524 0 0 1-12.944 2.822 5.28 5.28 0 0 1 2.224-4.523 15.4 15.4 0 0 1 7.3-2.8 10.125 10.125 0 0 1 5.019.15 5.14 5.14 0 0 1 .943.451z" transform="translate(-123.551 -443.407)" style="fill:#e2706d"/>
        </g>
    </g>
</svg>
