<?xml version="1.0" encoding="UTF-8"?>
<svg width="18px" height="18px" viewBox="0 0 18 18" version="1.1" xmlns="http://www.w3.org/2000/svg" xmlns:xlink="http://www.w3.org/1999/xlink">
    <title>icon-select-right-active</title>
    <g id="Page-1" stroke="none" stroke-width="1" fill="none" fill-rule="evenodd">
        <g id="icon-select-right-active" fill="#FFFFFF" fill-rule="nonzero">
            <path d="M0,9 C0,13.9705627 4.02943725,18 9,18 C13.9705627,18 18,13.9705627 18,9 C18,4.02943725 13.9705627,0 9,0 C4.02943725,0 0,4.02943725 0,9 Z M10.579,9 L7.036,5.491 C6.70987586,5.16487586 6.70987586,4.63612414 7.036,4.31 C7.36212414,3.98387586 7.89087586,3.98387586 8.217,4.31 L12.345,8.45 C12.65956,8.76519877 12.6710063,9.27191876 12.371,9.601 L8.304,13.681 C8.09581493,13.9017986 7.78412608,13.9920884 7.49015724,13.9167533 C7.1961884,13.8414181 6.96634124,13.6123495 6.89000921,13.3186379 C6.81367718,13.0249264 6.90290895,12.712933 7.123,12.504 L10.579,9 Z" id="Shape"></path>
        </g>
    </g>
</svg>