<svg xmlns="http://www.w3.org/2000/svg" width="14.811" height="14.83" viewBox="0 0 14.811 14.83">
    <path fill="#fff" d="M3.3 5.857a1.091 1.091 0 0 1 .278-.593L5.8 3.042q.26-.222.389.074l1.8 3.37a.485.485 0 0 1-.093.574l-.815.815a.921.921 0 0 0-.259.574 2.827 2.827 0 0 0 .574 1.426 12.176 12.176 0 0 0 1.13 1.482l.574.592c.173.173.395.386.667.639a11.179 11.179 0 0 0 1.342 1 3 3 0 0 0 1.472.62.806.806 0 0 0 .593-.241l.957-.967a.407.407 0 0 1 .555-.074l3.241 1.907a.271.271 0 0 1 .148.194.236.236 0 0 1-.074.213l-2.222 2.222a1.088 1.088 0 0 1-.592.277 4.48 4.48 0 0 1-2.047-.25 9.26 9.26 0 0 1-2.11-1.009q-.972-.629-1.805-1.277T7.892 14.1l-.481-.463q-.185-.185-.491-.509t-1.066-1.281a18.6 18.6 0 0 1-1.315-1.861 10.856 10.856 0 0 1-.963-2.065A4.392 4.392 0 0 1 3.3 5.857z" transform="translate(-3.267 -2.947)"/>
</svg>
