<?xml version="1.0" encoding="UTF-8"?>
<svg width="41px" height="41px" viewBox="0 0 41 41" version="1.1" xmlns="http://www.w3.org/2000/svg" xmlns:xlink="http://www.w3.org/1999/xlink">
    <title>334</title>
    <g id="Page-1" stroke="none" stroke-width="1" fill="none" fill-rule="evenodd">
        <g id="334" transform="translate(0.000000, 0.000000)" fill="#489D9C" fill-rule="nonzero">
            <path d="M20.5,0 C9.17816263,0 0,9.17816263 0,20.5 C0,31.8218374 9.17816263,41 20.5,41 C31.8218374,41 41,31.8218374 41,20.5 C41,9.17816263 31.8218374,0 20.5,0 Z M22.373,29.961 L18.613,29.961 L18.613,15.761 L22.373,15.761 L22.373,29.961 Z M20.491,14.212 C19.4147488,14.172596 18.5700706,13.2754181 18.5955558,12.1987474 C18.6210411,11.1220767 19.5072226,10.2658689 20.5841328,10.2774311 C21.661043,10.2889933 22.5286372,11.1640303 22.531,12.241 C22.5302069,12.7755672 22.312753,13.2869809 21.9283108,13.6584199 C21.5438687,14.0298589 21.0252781,14.229594 20.491,14.212 L20.491,14.212 Z" id="Shape"></path>
        </g>
    </g>
</svg>