<svg xmlns="http://www.w3.org/2000/svg" xmlns:xlink="http://www.w3.org/1999/xlink" width="36" height="36" viewBox="0 0 36 36">
    <defs>
        <path id="1wjc4n8l2a" d="M0 0.009L35.991 0.009 35.991 35.904 0 35.904z"/>
    </defs>
    <g fill="none" fill-rule="evenodd">
        <g>
            <g>
                <g>
                    <g>
                        <g transform="translate(-1458 -6959) translate(0 6952) translate(1458 7)">
                            <mask id="wl7tul5u8b" fill="#fff">
                                <use xlink:href="#1wjc4n8l2a"/>
                            </mask>
                            <path fill="#2EB34A" d="M35.99 17.957c0 9.912-8.056 17.947-17.995 17.947C8.057 35.904 0 27.87 0 17.957 0 8.045 8.057.009 17.995.009c9.939 0 17.996 8.036 17.996 17.948" mask="url(#wl7tul5u8b)"/>
                        </g>
                        <path fill="#FEFEFE" d="M25.683 11.314H11.317C9.485 11.314 8 12.703 8 14.415v7.356c0 1.713 1.485 3.1 3.317 3.1h4.948l1.69 2.563s.017.03.054.072c.099.158.28.265.49.265.21 0 .39-.105.49-.261.042-.047.057-.077.057-.077l1.689-2.561h4.948c1.832 0 3.317-1.388 3.317-3.101v-7.356c0-1.712-1.485-3.1-3.317-3.1" transform="translate(-1458 -6959) translate(0 6952) translate(1458 7)"/>
                        <path fill="#F37528" d="M13 19.512c-.435 0-.788-.346-.788-.774 0-.427.353-.774.788-.774.436 0 .789.347.789.774 0 .428-.353.774-.789.774m.27-2.648s-.547 0-1.043.474v-1.91H11v5.018h1.24v-.393s.292.518 1.03.518c0 0 1.73-.062 1.73-1.872 0 0-.064-1.835-1.73-1.835M15 14.4v1.164s.643-.025.643 1.001v2.978H17V16.29s.058-1.89-2-1.89M19.977 19.391c-.424 0-.769-.386-.769-.863 0-.476.345-.862.77-.862.424 0 .768.386.768.862 0 .477-.344.863-.769.863m0-2.934S18 16.457 18 18.528c0 0-.064 2.043 1.977 2.043 0 0 2.023-.003 2.023-2.043 0 0 .066-2.07-2.023-2.07" transform="translate(-1458 -6959) translate(0 6952) translate(1458 7)"/>
                        <path fill="#F37528" d="M24.054 18.964c-.44 0-.797-.33-.797-.737s.357-.737.797-.737c.44 0 .797.33.797.737s-.357.737-.797.737zm.741-2.39v.32s-.356-.437-1.04-.437c0 0-1.755-.068-1.755 1.758 0 0-.02 1.7 1.706 1.7 0 0 .704.027 1.089-.436v.267s.087.838-.79.838h-.299V21.6h.482S26 21.618 26 19.809v-3.236h-1.205z" transform="translate(-1458 -6959) translate(0 6952) translate(1458 7)"/>
                    </g>
                </g>
            </g>
        </g>
    </g>
</svg>
