<?xml version="1.0" encoding="UTF-8"?>
<svg width="56px" height="41px" viewBox="0 0 56 41" version="1.1" xmlns="http://www.w3.org/2000/svg" xmlns:xlink="http://www.w3.org/1999/xlink">
    <title>335</title>
    <g id="Page-1" stroke="none" stroke-width="1" fill="none" fill-rule="evenodd">
        <g id="335" fill="#489D9C" fill-rule="nonzero">
            <path d="M51.363,0.000238488345 L37.771,0.000238488345 C33.1275571,-0.0317103074 29.0781064,3.14943791 28.01,7.66848059 C26.9392435,3.15113151 22.8914249,-0.0287346339 18.249,0.000238488345 L4.667,0.000238488345 C2.11308766,-0.0217131537 0.0241906634,2.02958638 0,4.58348059 L0,28.0594806 C0.0241906634,30.6133748 2.11308766,32.6646743 4.667,32.6424806 L13.388,32.6424806 C23.324,32.6424806 26.288,34.9724806 27.709,39.8044806 C27.755131,39.9253778 27.8711006,40.0052522 28.0005,40.0052522 C28.1298994,40.0052522 28.245869,39.9253778 28.292,39.8044806 C29.721,34.9724806 32.686,32.6424806 42.613,32.6424806 L51.334,32.6424806 C53.8875233,32.6641191 55.9758083,30.612981 56,28.0594806 L56,4.59348059 C55.9774875,2.04904907 53.9075305,-0.00126630348 51.363,0.000238488345 Z M23.528,25.3434806 C23.5277427,25.4330277 23.4916449,25.5187445 23.4277641,25.581498 C23.3638833,25.6442515 23.2775375,25.6788175 23.188,25.6774806 L7.6,25.6774806 C7.51046246,25.6788175 7.42411668,25.6442515 7.36023588,25.581498 C7.29635507,25.5187445 7.26025733,25.4330277 7.26,25.3434806 L7.26,23.1594806 C7.26025733,23.0699334 7.29635507,22.9842167 7.36023588,22.9214632 C7.42411668,22.8587097 7.51046246,22.8241437 7.6,22.8254806 L23.2,22.8254806 C23.2895375,22.8241437 23.3758833,22.8587097 23.4397641,22.9214632 C23.5036449,22.9842167 23.5397427,23.0699334 23.54,23.1594806 L23.54,25.3464806 L23.528,25.3434806 Z M23.528,19.5284806 C23.5277427,19.6180277 23.4916449,19.7037445 23.4277641,19.766498 C23.3638833,19.8292515 23.2775375,19.8638175 23.188,19.8624806 L7.6,19.8624806 C7.51046246,19.8638175 7.42411668,19.8292515 7.36023588,19.766498 C7.29635507,19.7037445 7.26025733,19.6180277 7.26,19.5284806 L7.26,17.3414806 C7.26025733,17.2519334 7.29635507,17.1662167 7.36023588,17.1034632 C7.42411668,17.0407097 7.51046246,17.0061437 7.6,17.0074806 L23.2,17.0074806 C23.2895375,17.0061437 23.3758833,17.0407097 23.4397641,17.1034632 C23.5036449,17.1662167 23.5397427,17.2519334 23.54,17.3414806 L23.54,19.5284806 L23.528,19.5284806 Z M23.528,13.7134806 C23.5277427,13.8030277 23.4916449,13.8887445 23.4277641,13.951498 C23.3638833,14.0142515 23.2775375,14.0488175 23.188,14.0474806 L7.6,14.0474806 C7.51046246,14.0488175 7.42411668,14.0142515 7.36023588,13.951498 C7.29635507,13.8887445 7.26025733,13.8030277 7.26,13.7134806 L7.26,11.5254806 C7.26025733,11.4359334 7.29635507,11.3502167 7.36023588,11.2874632 C7.42411668,11.2247097 7.51046246,11.1901437 7.6,11.1914806 L23.2,11.1914806 C23.2895375,11.1901437 23.3758833,11.2247097 23.4397641,11.2874632 C23.5036449,11.3502167 23.5397427,11.4359334 23.54,11.5254806 L23.54,13.7124806 L23.528,13.7134806 Z M48.738,25.3344806 C48.7377427,25.4240277 48.7016449,25.5097445 48.6377641,25.572498 C48.5738833,25.6352515 48.4875375,25.6698175 48.398,25.6684806 L32.813,25.6684806 C32.7234625,25.6698175 32.6371167,25.6352515 32.5732359,25.572498 C32.5093551,25.5097445 32.4732573,25.4240277 32.473,25.3344806 L32.473,23.1464806 C32.4732573,23.0569334 32.5093551,22.9712167 32.5732359,22.9084632 C32.6371167,22.8457097 32.7234625,22.8111437 32.813,22.8124806 L48.407,22.8124806 C48.4965375,22.8111437 48.5828833,22.8457097 48.6467641,22.9084632 C48.7106449,22.9712167 48.7467427,23.0569334 48.747,23.1464806 L48.747,25.3334806 L48.738,25.3344806 Z M48.738,19.5194806 C48.7377427,19.6090277 48.7016449,19.6947445 48.6377641,19.757498 C48.5738833,19.8202515 48.4875375,19.8548175 48.398,19.8534806 L32.813,19.8534806 C32.7234625,19.8548175 32.6371167,19.8202515 32.5732359,19.757498 C32.5093551,19.6947445 32.4732573,19.6090277 32.473,19.5194806 L32.473,17.3314806 C32.4732573,17.2419334 32.5093551,17.1562167 32.5732359,17.0934632 C32.6371167,17.0307097 32.7234625,16.9961437 32.813,16.9974806 L48.407,16.9974806 C48.4965375,16.9961437 48.5828833,17.0307097 48.6467641,17.0934632 C48.7106449,17.1562167 48.7467427,17.2419334 48.747,17.3314806 L48.747,19.5184806 L48.738,19.5194806 Z M48.738,13.7044806 C48.7377427,13.7940277 48.7016449,13.8797445 48.6377641,13.942498 C48.5738833,14.0052515 48.4875375,14.0398175 48.398,14.0384806 L32.813,14.0384806 C32.7234625,14.0398175 32.6371167,14.0052515 32.5732359,13.942498 C32.5093551,13.8797445 32.4732573,13.7940277 32.473,13.7044806 L32.473,11.5254806 C32.4732573,11.4359334 32.5093551,11.3502167 32.5732359,11.2874632 C32.6371167,11.2247097 32.7234625,11.1901437 32.813,11.1914806 L48.407,11.1914806 C48.4965375,11.1901437 48.5828833,11.2247097 48.6467641,11.2874632 C48.7106449,11.3502167 48.7467427,11.4359334 48.747,11.5254806 L48.747,13.7024806 L48.738,13.7044806 Z" id="Shape"></path>
        </g>
    </g>
</svg>