<svg xmlns="http://www.w3.org/2000/svg" width="12.678" height="14.983" viewBox="0 0 12.678 14.983">
    <path fill="#3ab449" d="M11.964 3.375c-3.381 0-6.339.384-6.339 3.073v7.683a2.672 2.672 0 0 0 2.689 2.689l-.96.96v.576h9.22v-.576l-.96-.96a2.672 2.672 0 0 0 2.686-2.688V6.448c0-2.689-2.955-3.073-6.336-3.073zm-3.458 12.1a1.153 1.153 0 1 1 1.153-1.153 1.132 1.132 0 0 1-1.153 1.154zm2.881-5.186H7.354V6.833h4.034zm4.034 5.186a1.153 1.153 0 1 1 1.153-1.153 1.132 1.132 0 0 1-1.153 1.154zm1.153-5.186H12.54V6.833h4.034z" transform="translate(-5.625 -3.375)"/>
</svg>
