<svg xmlns="http://www.w3.org/2000/svg" width="71.922" height="103" viewBox="0 0 71.922 103">
    <defs>
        <style>
            .cls-3{fill:#989898}
        </style>
    </defs>
    <g id="img" transform="translate(-919.112 -183.066)">
        <path id="패스_41" fill="#6cc5af" d="M35.961 0a35.961 35.961 0 0 1 35.961 35.961C71.922 55.822 37.293 103 35.961 103S0 55.822 0 35.961A35.961 35.961 0 0 1 35.961 0z" transform="translate(919.112 183.066)"/>
        <circle id="타원_15" cx="30.5" cy="30.5" r="30.5" fill="#fff" transform="translate(925 188.733)"/>
        <g id="그룹_63" transform="translate(123 22.066)">
            <circle id="타원_18" cx="3.5" cy="3.5" r="3.5" class="cls-3" transform="translate(823 186)"/>
            <circle id="타원_19" cx="3.5" cy="3.5" r="3.5" class="cls-3" transform="translate(836 186)"/>
        </g>
        <path id="사각형_311" d="M0 0h7v12.75a3.5 3.5 0 0 1-3.5 3.5 3.5 3.5 0 0 1-3.5-3.5V0z" class="cls-3" transform="translate(952 219.399)"/>
        <path id="합치기_83" fill="#ba8b90" d="M-8222 1234a3 3 0 0 1-3-3 3 3 0 0 1 3-3h14a3 3 0 0 1 3 3 3 3 0 0 1-3 3zm-36 0a3 3 0 0 1-3-3 3 3 0 0 1 3-3h14a3 3 0 0 1 3 3 3 3 0 0 1-3 3z" opacity="0.7" transform="translate(9188.5 -1012.5)"/>
    </g>
</svg>
